# xmcd
#
# Track frame offsets: 
#        150
#        25285
#        47168
#        78663
#        103030
#        132510
#        156349
#        175000
#        202943
#
# Disc length: 3195 seconds
#
# Revision: 0
# Processed by: cddbd v1.5.2PL0 Copyright (c) Steve Scherf et al.
# Submitted via: ExactAudioCopy v0.99pb4
#
DISCID=750c7909
DTITLE=Plankton - Ocean Tales
DYEAR=2009
DGENRE=Blues/Rock
TTITLE0=We come in peace 
TTITLE1=In the meadows
TTITLE2=Small steps giant leaps
TTITLE3=Pomperipossa
TTITLE4=I see land
TTITLE5=Time wounds all heals
TTITLE6=First snow 
TTITLE7=Plankton sans frontiers
TTITLE8=When worlds collide
EXTD=
EXTT0=
EXTT1=
EXTT2=
EXTT3=
EXTT4=
EXTT5=
EXTT6=
EXTT7=
EXTT8=
PLAYORDER=
